<?xml version="1.0" encoding="UTF-8" standalone="no"?>
<!DOCTYPE svg PUBLIC "-//W3C//DTD SVG 1.1//EN"
 "http://www.w3.org/Graphics/SVG/1.1/DTD/svg11.dtd">
<!-- Generated by graphviz version 2.36.0 (20140111.2315)
 -->
<!-- Title: G Pages: 1 -->
<svg width="268pt" height="856pt"
 viewBox="0.00 0.00 268.00 856.00" xmlns="http://www.w3.org/2000/svg" xmlns:xlink="http://www.w3.org/1999/xlink">
<g id="graph0" class="graph" transform="scale(1 1) rotate(0) translate(4 852)">
<title>G</title>
<polygon fill="white" stroke="none" points="-4,4 -4,-852 264,-852 264,4 -4,4"/>
<!-- n1 -->
<g id="node1" class="node"><title>n1</title>
<g id="a_node1"><a xlink:title="[simple2.lua]:5">
<ellipse fill="none" stroke="black" cx="130" cy="-160" rx="125.237" ry="48.1667"/>
<text text-anchor="middle" x="130" y="-178.8" font-family="Times,serif" font-size="14.00">Node1</text>
<text text-anchor="start" x="49.5" y="-163.8" font-family="Times,serif" font-size="14.00">input = {Tensor[10]}</text>
<text text-anchor="start" x="49.5" y="-148.8" font-family="Times,serif" font-size="14.00">module = nn.Linear(10 &#45;&gt; 1)</text>
<text text-anchor="middle" x="130" y="-133.8" font-family="Times,serif" font-size="14.00">gradOutput = {Tensor[1]}</text>
</a>
</g>
</g>
<!-- n2 -->
<g id="node2" class="node"><title>n2</title>
<g id="a_node2"><a xlink:title="[[C]]:&#45;1">
<ellipse fill="none" stroke="black" cx="130" cy="-38" rx="115.448" ry="37.4533"/>
<text text-anchor="middle" x="130" y="-49.3" font-family="Times,serif" font-size="14.00">Node2</text>
<text text-anchor="start" x="56" y="-34.3" font-family="Times,serif" font-size="14.00">input = {Tensor[1]}</text>
<text text-anchor="middle" x="130" y="-19.3" font-family="Times,serif" font-size="14.00">gradOutput = {Tensor[1]}</text>
</a>
</g>
</g>
<!-- n1&#45;&gt;n2 -->
<g id="edge1" class="edge"><title>n1&#45;&gt;n2</title>
<path fill="none" stroke="black" d="M130,-111.573C130,-103.096 130,-94.269 130,-85.8099"/>
<polygon fill="black" stroke="black" points="133.5,-85.7224 130,-75.7224 126.5,-85.7224 133.5,-85.7224"/>
</g>
<!-- n3 -->
<g id="node3" class="node"><title>n3</title>
<g id="a_node3"><a xlink:title="[simple2.lua]:5">
<ellipse fill="none" stroke="black" cx="130" cy="-292" rx="120.373" ry="48.1667"/>
<text text-anchor="middle" x="130" y="-310.8" font-family="Times,serif" font-size="14.00">Node3</text>
<text text-anchor="start" x="52.5" y="-295.8" font-family="Times,serif" font-size="14.00">input = {Tensor[10]}</text>
<text text-anchor="start" x="52.5" y="-280.8" font-family="Times,serif" font-size="14.00">module = nn.Tanh</text>
<text text-anchor="middle" x="130" y="-265.8" font-family="Times,serif" font-size="14.00">gradOutput = {Tensor[10]}</text>
</a>
</g>
</g>
<!-- n3&#45;&gt;n1 -->
<g id="edge2" class="edge"><title>n3&#45;&gt;n1</title>
<path fill="none" stroke="black" d="M130,-243.699C130,-235.544 130,-226.987 130,-218.597"/>
<polygon fill="black" stroke="black" points="133.5,-218.483 130,-208.483 126.5,-218.483 133.5,-218.483"/>
</g>
<!-- n4 -->
<g id="node4" class="node"><title>n4</title>
<g id="a_node4"><a xlink:title="[simple2.lua]:5">
<ellipse fill="none" stroke="black" cx="130" cy="-424" rx="130.162" ry="48.1667"/>
<text text-anchor="middle" x="130" y="-442.8" font-family="Times,serif" font-size="14.00">Node4</text>
<text text-anchor="start" x="46" y="-427.8" font-family="Times,serif" font-size="14.00">input = {Tensor[10]}</text>
<text text-anchor="start" x="46" y="-412.8" font-family="Times,serif" font-size="14.00">module = nn.Linear(10 &#45;&gt; 10)</text>
<text text-anchor="middle" x="130" y="-397.8" font-family="Times,serif" font-size="14.00">gradOutput = {Tensor[10]}</text>
</a>
</g>
</g>
<!-- n4&#45;&gt;n3 -->
<g id="edge3" class="edge"><title>n4&#45;&gt;n3</title>
<path fill="none" stroke="black" d="M130,-375.699C130,-367.544 130,-358.987 130,-350.597"/>
<polygon fill="black" stroke="black" points="133.5,-350.483 130,-340.483 126.5,-350.483 133.5,-350.483"/>
</g>
<!-- n5 -->
<g id="node5" class="node"><title>n5</title>
<g id="a_node5"><a xlink:title="[simple2.lua]:5">
<ellipse fill="none" stroke="black" cx="130" cy="-556" rx="120.373" ry="48.1667"/>
<text text-anchor="middle" x="130" y="-574.8" font-family="Times,serif" font-size="14.00">Node5</text>
<text text-anchor="start" x="52.5" y="-559.8" font-family="Times,serif" font-size="14.00">input = {Tensor[10]}</text>
<text text-anchor="start" x="52.5" y="-544.8" font-family="Times,serif" font-size="14.00">module = nn.Tanh</text>
<text text-anchor="middle" x="130" y="-529.8" font-family="Times,serif" font-size="14.00">gradOutput = {Tensor[10]}</text>
</a>
</g>
</g>
<!-- n5&#45;&gt;n4 -->
<g id="edge4" class="edge"><title>n5&#45;&gt;n4</title>
<path fill="none" stroke="black" d="M130,-507.699C130,-499.544 130,-490.987 130,-482.597"/>
<polygon fill="black" stroke="black" points="133.5,-482.483 130,-472.483 126.5,-482.483 133.5,-482.483"/>
</g>
<!-- n6 -->
<g id="node6" class="node"><title>n6</title>
<g id="a_node6"><a xlink:title="[simple2.lua]:4">
<ellipse fill="none" stroke="black" cx="130" cy="-688" rx="130.162" ry="48.1667"/>
<text text-anchor="middle" x="130" y="-706.8" font-family="Times,serif" font-size="14.00">Node6</text>
<text text-anchor="start" x="46" y="-691.8" font-family="Times,serif" font-size="14.00">input = {Tensor[20]}</text>
<text text-anchor="start" x="46" y="-676.8" font-family="Times,serif" font-size="14.00">module = nn.Linear(20 &#45;&gt; 10)</text>
<text text-anchor="middle" x="130" y="-661.8" font-family="Times,serif" font-size="14.00">gradOutput = {Tensor[10]}</text>
</a>
</g>
</g>
<!-- n6&#45;&gt;n5 -->
<g id="edge5" class="edge"><title>n6&#45;&gt;n5</title>
<path fill="none" stroke="black" d="M130,-639.699C130,-631.544 130,-622.987 130,-614.597"/>
<polygon fill="black" stroke="black" points="133.5,-614.483 130,-604.483 126.5,-614.483 133.5,-614.483"/>
</g>
<!-- n7 -->
<g id="node7" class="node"><title>n7</title>
<g id="a_node7"><a xlink:title="[[C]]:&#45;1">
<ellipse fill="none" stroke="black" cx="130" cy="-810" rx="120.373" ry="37.4533"/>
<text text-anchor="middle" x="130" y="-821.3" font-family="Times,serif" font-size="14.00">Node7</text>
<text text-anchor="start" x="52.5" y="-806.3" font-family="Times,serif" font-size="14.00">input = {Tensor[20]}</text>
<text text-anchor="middle" x="130" y="-791.3" font-family="Times,serif" font-size="14.00">gradOutput = {Tensor[20]}</text>
</a>
</g>
</g>
<!-- n7&#45;&gt;n6 -->
<g id="edge6" class="edge"><title>n7&#45;&gt;n6</title>
<path fill="none" stroke="black" d="M130,-772.344C130,-764.219 130,-755.418 130,-746.683"/>
<polygon fill="black" stroke="black" points="133.5,-746.503 130,-736.503 126.5,-746.503 133.5,-746.503"/>
</g>
</g>
</svg>
