<?xml version="1.0" encoding="UTF-8" standalone="no"?>
<!DOCTYPE svg PUBLIC "-//W3C//DTD SVG 1.1//EN"
 "http://www.w3.org/Graphics/SVG/1.1/DTD/svg11.dtd">
<!-- Generated by graphviz version 2.36.0 (20140111.2315)
 -->
<!-- Title: G Pages: 1 -->
<svg width="404pt" height="556pt"
 viewBox="0.00 0.00 404.00 556.00" xmlns="http://www.w3.org/2000/svg" xmlns:xlink="http://www.w3.org/1999/xlink">
<g id="graph0" class="graph" transform="scale(1 1) rotate(0) translate(4 552)">
<title>G</title>
<polygon fill="white" stroke="none" points="-4,4 -4,-552 400,-552 400,4 -4,4"/>
<!-- n1 -->
<g id="node1" class="node"><title>n1</title>
<g id="a_node1"><a xlink:title="[simple1.lua]:14">
<ellipse fill="#a2cd5a" stroke="#a2cd5a" cx="198" cy="-128" rx="125.298" ry="37.4533"/>
<text text-anchor="middle" x="198" y="-139.3" font-family="Times,serif" font-size="14.00" fill="darkgreen">Output (1)</text>
<text text-anchor="start" x="117" y="-124.3" font-family="Times,serif" font-size="14.00" fill="darkgreen">module = nn.CAddTable</text>
<text text-anchor="middle" x="198" y="-109.3" font-family="Times,serif" font-size="14.00" fill="darkgreen">mapindex = {Node3,Node4}</text>
</a>
</g>
</g>
<!-- n2 -->
<g id="node2" class="node"><title>n2</title>
<g id="a_node2"><a xlink:title="[[C]]:&#45;1">
<ellipse fill="none" stroke="black" cx="198" cy="-27" rx="51.99" ry="26.7407"/>
<text text-anchor="middle" x="198" y="-30.8" font-family="Times,serif" font-size="14.00">Node2</text>
<text text-anchor="middle" x="198" y="-15.8" font-family="Times,serif" font-size="14.00">input = {}</text>
</a>
</g>
</g>
<!-- n1&#45;&gt;n2 -->
<g id="edge1" class="edge"><title>n1&#45;&gt;n2</title>
<path fill="none" stroke="black" d="M198,-90.4173C198,-81.8023 198,-72.6261 198,-64.0354"/>
<polygon fill="black" stroke="black" points="201.5,-63.9241 198,-53.9242 194.5,-63.9242 201.5,-63.9241"/>
</g>
<!-- n3 -->
<g id="node3" class="node"><title>n3</title>
<g id="a_node3"><a xlink:title="[simple1.lua]:4">
<ellipse fill="#00b2ee" stroke="#00b2ee" cx="94" cy="-229" rx="94.1301" ry="26.7407"/>
<text text-anchor="middle" x="94" y="-232.8" font-family="Times,serif" font-size="14.00" fill="#104e8b">Input 1 (3)</text>
<text text-anchor="middle" x="94" y="-217.8" font-family="Times,serif" font-size="14.00" fill="#104e8b">module = nn.Identity</text>
</a>
</g>
</g>
<!-- n3&#45;&gt;n1 -->
<g id="edge2" class="edge"><title>n3&#45;&gt;n1</title>
<path fill="none" stroke="black" d="M120.244,-203.018C130.412,-193.339 142.339,-181.985 153.755,-171.118"/>
<polygon fill="black" stroke="black" points="156.33,-173.499 161.16,-164.069 151.503,-168.429 156.33,-173.499"/>
</g>
<!-- n4 -->
<g id="node4" class="node"><title>n4</title>
<g id="a_node4"><a xlink:title="[simple1.lua]:9">
<ellipse fill="#00b2ee" stroke="#00b2ee" cx="302" cy="-229" rx="94.1301" ry="26.7407"/>
<text text-anchor="middle" x="302" y="-232.8" font-family="Times,serif" font-size="14.00" fill="#104e8b">Input 2 (4)</text>
<text text-anchor="middle" x="302" y="-217.8" font-family="Times,serif" font-size="14.00" fill="#104e8b">module = nn.Identity</text>
</a>
</g>
</g>
<!-- n4&#45;&gt;n1 -->
<g id="edge3" class="edge"><title>n4&#45;&gt;n1</title>
<path fill="none" stroke="black" d="M275.756,-203.018C265.588,-193.339 253.661,-181.985 242.245,-171.118"/>
<polygon fill="black" stroke="black" points="244.497,-168.429 234.84,-164.069 239.67,-173.499 244.497,-168.429"/>
</g>
<!-- n5 -->
<g id="node5" class="node"><title>n5</title>
<g id="a_node5"><a xlink:title="[[C]]:&#45;1&#45;1">
<ellipse fill="none" stroke="black" cx="106" cy="-330" rx="71.127" ry="37.4533"/>
<text text-anchor="middle" x="106" y="-341.3" font-family="Times,serif" font-size="14.00">Node5</text>
<text text-anchor="start" x="63.5" y="-326.3" font-family="Times,serif" font-size="14.00">input = {}</text>
<text text-anchor="middle" x="106" y="-311.3" font-family="Times,serif" font-size="14.00">selectindex = 1</text>
</a>
</g>
</g>
<!-- n5&#45;&gt;n3 -->
<g id="edge4" class="edge"><title>n5&#45;&gt;n3</title>
<path fill="none" stroke="black" d="M101.566,-292.417C100.521,-283.802 99.4092,-274.626 98.3679,-266.035"/>
<polygon fill="black" stroke="black" points="101.82,-265.43 97.1423,-255.924 94.8712,-266.273 101.82,-265.43"/>
</g>
<!-- n6 -->
<g id="node6" class="node"><title>n6</title>
<g id="a_node6"><a xlink:title="[[C]]:&#45;1&#45;2">
<ellipse fill="none" stroke="black" cx="290" cy="-330" rx="71.127" ry="37.4533"/>
<text text-anchor="middle" x="290" y="-341.3" font-family="Times,serif" font-size="14.00">Node6</text>
<text text-anchor="start" x="247.5" y="-326.3" font-family="Times,serif" font-size="14.00">input = {}</text>
<text text-anchor="middle" x="290" y="-311.3" font-family="Times,serif" font-size="14.00">selectindex = 2</text>
</a>
</g>
</g>
<!-- n6&#45;&gt;n4 -->
<g id="edge5" class="edge"><title>n6&#45;&gt;n4</title>
<path fill="none" stroke="black" d="M294.434,-292.417C295.479,-283.802 296.591,-274.626 297.632,-266.035"/>
<polygon fill="black" stroke="black" points="301.129,-266.273 298.858,-255.924 294.18,-265.43 301.129,-266.273"/>
</g>
<!-- n7 -->
<g id="node7" class="node"><title>n7</title>
<g id="a_node7"><a xlink:title="[[C]]:&#45;1&#45;mnode">
<ellipse fill="none" stroke="black" cx="186" cy="-431" rx="82.0366" ry="26.7407"/>
<text text-anchor="middle" x="186" y="-434.8" font-family="Times,serif" font-size="14.00">Node7</text>
<text text-anchor="middle" x="186" y="-419.8" font-family="Times,serif" font-size="14.00">nSplitOutputs = 2</text>
</a>
</g>
</g>
<!-- n7&#45;&gt;n5 -->
<g id="edge6" class="edge"><title>n7&#45;&gt;n5</title>
<path fill="none" stroke="black" d="M165.606,-404.762C157.708,-394.989 148.456,-383.54 139.629,-372.616"/>
<polygon fill="black" stroke="black" points="142.31,-370.365 133.302,-364.787 136.865,-374.765 142.31,-370.365"/>
</g>
<!-- n7&#45;&gt;n6 -->
<g id="edge7" class="edge"><title>n7&#45;&gt;n6</title>
<path fill="none" stroke="black" d="M211.975,-405.273C223.036,-394.744 236.214,-382.201 248.561,-370.446"/>
<polygon fill="black" stroke="black" points="251.286,-372.685 256.116,-363.255 246.46,-367.614 251.286,-372.685"/>
</g>
<!-- n8 -->
<g id="node8" class="node"><title>n8</title>
<g id="a_node8"><a xlink:title="[[C]]:&#45;1">
<ellipse fill="none" stroke="black" cx="186" cy="-521" rx="51.99" ry="26.7407"/>
<text text-anchor="middle" x="186" y="-524.8" font-family="Times,serif" font-size="14.00">Node8</text>
<text text-anchor="middle" x="186" y="-509.8" font-family="Times,serif" font-size="14.00">input = {}</text>
</a>
</g>
</g>
<!-- n8&#45;&gt;n7 -->
<g id="edge8" class="edge"><title>n8&#45;&gt;n7</title>
<path fill="none" stroke="black" d="M186,-494.073C186,-485.999 186,-476.943 186,-468.296"/>
<polygon fill="black" stroke="black" points="189.5,-468.046 186,-458.046 182.5,-468.046 189.5,-468.046"/>
</g>
</g>
</svg>
