<?xml version="1.0" encoding="UTF-8" standalone="no"?>
<!DOCTYPE svg PUBLIC "-//W3C//DTD SVG 1.1//EN"
 "http://www.w3.org/Graphics/SVG/1.1/DTD/svg11.dtd">
<!-- Generated by graphviz version 2.36.0 (20140111.2315)
 -->
<!-- Title: G Pages: 1 -->
<svg width="907pt" height="1634pt"
 viewBox="0.00 0.00 907.17 1634.00" xmlns="http://www.w3.org/2000/svg" xmlns:xlink="http://www.w3.org/1999/xlink">
<g id="graph0" class="graph" transform="scale(1 1) rotate(0) translate(4 1630)">
<title>G</title>
<polygon fill="white" stroke="none" points="-4,4 -4,-1630 903.167,-1630 903.167,4 -4,4"/>
<!-- n1 -->
<g id="node1" class="node"><title>n1</title>
<g id="a_node1"><a xlink:title="[./gru/BuildCell.lua]:63">
<ellipse fill="none" stroke="black" cx="220.167" cy="-128" rx="125.298" ry="37.4533"/>
<text text-anchor="middle" x="220.167" y="-139.3" font-family="Times,serif" font-size="14.00">Node1</text>
<text text-anchor="start" x="139.167" y="-124.3" font-family="Times,serif" font-size="14.00">module = nn.CAddTable</text>
<text text-anchor="middle" x="220.167" y="-109.3" font-family="Times,serif" font-size="14.00">mapindex = {Node3,Node4}</text>
</a>
</g>
</g>
<!-- n2 -->
<g id="node2" class="node"><title>n2</title>
<g id="a_node2"><a xlink:title="[[C]]:&#45;1">
<ellipse fill="none" stroke="black" cx="220.167" cy="-27" rx="51.99" ry="26.7407"/>
<text text-anchor="middle" x="220.167" y="-30.8" font-family="Times,serif" font-size="14.00">Node2</text>
<text text-anchor="middle" x="220.167" y="-15.8" font-family="Times,serif" font-size="14.00">input = {}</text>
</a>
</g>
</g>
<!-- n1&#45;&gt;n2 -->
<g id="edge1" class="edge"><title>n1&#45;&gt;n2</title>
<path fill="none" stroke="black" d="M220.167,-90.4173C220.167,-81.8023 220.167,-72.6261 220.167,-64.0354"/>
<polygon fill="black" stroke="black" points="223.667,-63.9241 220.167,-53.9242 216.667,-63.9242 223.667,-63.9241"/>
</g>
<!-- n3 -->
<g id="node3" class="node"><title>n3</title>
<g id="a_node3"><a xlink:title="[./gru/BuildCell.lua]:61">
<ellipse fill="none" stroke="black" cx="143.167" cy="-442" rx="125.298" ry="37.4533"/>
<text text-anchor="middle" x="143.167" y="-453.3" font-family="Times,serif" font-size="14.00">Node3</text>
<text text-anchor="start" x="62.1672" y="-438.3" font-family="Times,serif" font-size="14.00">module = nn.CMulTable</text>
<text text-anchor="middle" x="143.167" y="-423.3" font-family="Times,serif" font-size="14.00">mapindex = {Node5,Node6}</text>
</a>
</g>
</g>
<!-- n3&#45;&gt;n1 -->
<g id="edge2" class="edge"><title>n3&#45;&gt;n1</title>
<path fill="none" stroke="black" d="M139.622,-404.301C136.385,-356.075 135.539,-269.577 162.167,-202 166.256,-191.623 172.346,-181.543 179.064,-172.353"/>
<polygon fill="black" stroke="black" points="182.032,-174.235 185.37,-164.179 176.49,-169.959 182.032,-174.235"/>
</g>
<!-- n4 -->
<g id="node4" class="node"><title>n4</title>
<g id="a_node4"><a xlink:title="[./gru/BuildCell.lua]:62">
<ellipse fill="none" stroke="black" cx="297.167" cy="-240" rx="125.298" ry="37.4533"/>
<text text-anchor="middle" x="297.167" y="-251.3" font-family="Times,serif" font-size="14.00">Node4</text>
<text text-anchor="start" x="216.167" y="-236.3" font-family="Times,serif" font-size="14.00">module = nn.CMulTable</text>
<text text-anchor="middle" x="297.167" y="-221.3" font-family="Times,serif" font-size="14.00">mapindex = {Node7,Node8}</text>
</a>
</g>
</g>
<!-- n4&#45;&gt;n1 -->
<g id="edge3" class="edge"><title>n4&#45;&gt;n1</title>
<path fill="none" stroke="black" d="M271.955,-202.982C265.373,-193.58 258.202,-183.335 251.351,-173.549"/>
<polygon fill="black" stroke="black" points="254.039,-171.284 245.437,-165.099 248.304,-175.299 254.039,-171.284"/>
</g>
<!-- n5 -->
<g id="node5" class="node"><title>n5</title>
<g id="a_node5"><a xlink:title="[./gru/BuildCell.lua]:60">
<ellipse fill="none" stroke="black" cx="148.167" cy="-543" rx="116.509" ry="26.7407"/>
<text text-anchor="middle" x="148.167" y="-546.8" font-family="Times,serif" font-size="14.00">Node5</text>
<text text-anchor="middle" x="148.167" y="-531.8" font-family="Times,serif" font-size="14.00">module = nn.AddConstant</text>
</a>
</g>
</g>
<!-- n5&#45;&gt;n3 -->
<g id="edge4" class="edge"><title>n5&#45;&gt;n3</title>
<path fill="none" stroke="black" d="M146.854,-515.989C146.446,-507.914 145.983,-498.753 145.527,-489.716"/>
<polygon fill="black" stroke="black" points="149.017,-489.442 145.017,-479.631 142.026,-489.795 149.017,-489.442"/>
</g>
<!-- n6 -->
<g id="node6" class="node"><title>n6</title>
<g id="a_node6"><a xlink:title="[./gru/BuildCell.lua]:30">
<ellipse fill="none" stroke="black" cx="217.167" cy="-1307" rx="94.1301" ry="26.7407"/>
<text text-anchor="middle" x="217.167" y="-1310.8" font-family="Times,serif" font-size="14.00">Node6</text>
<text text-anchor="middle" x="217.167" y="-1295.8" font-family="Times,serif" font-size="14.00">module = nn.Identity</text>
</a>
</g>
</g>
<!-- n6&#45;&gt;n3 -->
<g id="edge5" class="edge"><title>n6&#45;&gt;n3</title>
<path fill="none" stroke="black" d="M161.779,-1285.24C98.3712,-1257.45 3.16722,-1201.64 3.16722,-1117 3.16722,-1117 3.16722,-1117 3.16722,-643 3.16722,-585.927 -9.50165,-563.48 22.1672,-516 32.3327,-500.759 46.8627,-488.199 62.3463,-478.051"/>
<polygon fill="black" stroke="black" points="64.377,-480.91 71.0247,-472.66 60.6833,-474.964 64.377,-480.91"/>
</g>
<!-- n20 -->
<g id="node20" class="node"><title>n20</title>
<g id="a_node20"><a xlink:title="[./gru/BuildCell.lua]:54">
<ellipse fill="none" stroke="black" cx="545.167" cy="-644" rx="130.223" ry="37.4533"/>
<text text-anchor="middle" x="545.167" y="-655.3" font-family="Times,serif" font-size="14.00">Node20</text>
<text text-anchor="start" x="460.667" y="-640.3" font-family="Times,serif" font-size="14.00">module = nn.CMulTable</text>
<text text-anchor="middle" x="545.167" y="-625.3" font-family="Times,serif" font-size="14.00">mapindex = {Node23,Node6}</text>
</a>
</g>
</g>
<!-- n6&#45;&gt;n20 -->
<g id="edge24" class="edge"><title>n6&#45;&gt;n20</title>
<path fill="none" stroke="black" d="M208.998,-1280C198.377,-1243.84 181.167,-1176.12 181.167,-1117 181.167,-1117 181.167,-1117 181.167,-924 181.167,-871.757 168.722,-849.719 200.167,-808 217.266,-785.314 366.353,-719.844 462.868,-679.113"/>
<polygon fill="black" stroke="black" points="464.471,-682.236 472.328,-675.129 461.754,-675.785 464.471,-682.236"/>
</g>
<!-- n25 -->
<g id="node25" class="node"><title>n25</title>
<g id="a_node25"><a xlink:title="[./gru/BuildCell.lua]:34">
<ellipse fill="none" stroke="black" cx="344.167" cy="-1217" rx="135.086" ry="26.7407"/>
<text text-anchor="middle" x="344.167" y="-1220.8" font-family="Times,serif" font-size="14.00">Node25</text>
<text text-anchor="middle" x="344.167" y="-1205.8" font-family="Times,serif" font-size="14.00">module = nn.Linear(64 &#45;&gt; 128)</text>
</a>
</g>
</g>
<!-- n6&#45;&gt;n25 -->
<g id="edge30" class="edge"><title>n6&#45;&gt;n25</title>
<path fill="none" stroke="black" d="M251.871,-1281.95C266.619,-1271.73 283.996,-1259.69 299.671,-1248.83"/>
<polygon fill="black" stroke="black" points="301.951,-1251.51 308.177,-1242.94 297.964,-1245.76 301.951,-1251.51"/>
</g>
<!-- n7 -->
<g id="node7" class="node"><title>n7</title>
<g id="a_node7"><a xlink:title="[./gru/BuildCell.lua]:50">
<ellipse fill="none" stroke="black" cx="139.167" cy="-745" rx="97.3709" ry="26.7407"/>
<text text-anchor="middle" x="139.167" y="-748.8" font-family="Times,serif" font-size="14.00">Node7</text>
<text text-anchor="middle" x="139.167" y="-733.8" font-family="Times,serif" font-size="14.00">module = nn.Sigmoid</text>
</a>
</g>
</g>
<!-- n7&#45;&gt;n4 -->
<g id="edge6" class="edge"><title>n7&#45;&gt;n4</title>
<path fill="none" stroke="black" d="M208.423,-726.024C231.962,-716.6 256.299,-702.578 272.167,-682 310.231,-632.64 297.167,-606.332 297.167,-544 297.167,-544 297.167,-544 297.167,-441 297.167,-388.456 297.167,-328.147 297.167,-287.613"/>
<polygon fill="black" stroke="black" points="300.667,-287.495 297.167,-277.495 293.667,-287.495 300.667,-287.495"/>
</g>
<!-- n9 -->
<g id="node9" class="node"><title>n9</title>
<g id="a_node9"><a xlink:title="[./gru/BuildCell.lua]:60">
<ellipse fill="none" stroke="black" cx="148.167" cy="-644" rx="115.448" ry="26.7407"/>
<text text-anchor="middle" x="148.167" y="-647.8" font-family="Times,serif" font-size="14.00">Node9</text>
<text text-anchor="middle" x="148.167" y="-632.8" font-family="Times,serif" font-size="14.00">module = nn.MulConstant</text>
</a>
</g>
</g>
<!-- n7&#45;&gt;n9 -->
<g id="edge12" class="edge"><title>n7&#45;&gt;n9</title>
<path fill="none" stroke="black" d="M141.532,-717.989C142.547,-706.823 143.751,-693.581 144.853,-681.462"/>
<polygon fill="black" stroke="black" points="148.367,-681.457 145.787,-671.181 141.396,-680.823 148.367,-681.457"/>
</g>
<!-- n8 -->
<g id="node8" class="node"><title>n8</title>
<g id="a_node8"><a xlink:title="[./gru/BuildCell.lua]:57">
<ellipse fill="none" stroke="black" cx="477.167" cy="-341" rx="84.2802" ry="26.7407"/>
<text text-anchor="middle" x="477.167" y="-344.8" font-family="Times,serif" font-size="14.00">Node8</text>
<text text-anchor="middle" x="477.167" y="-329.8" font-family="Times,serif" font-size="14.00">module = nn.Tanh</text>
</a>
</g>
</g>
<!-- n8&#45;&gt;n4 -->
<g id="edge7" class="edge"><title>n8&#45;&gt;n4</title>
<path fill="none" stroke="black" d="M435.872,-317.287C414.795,-305.696 388.62,-291.299 364.705,-278.146"/>
<polygon fill="black" stroke="black" points="366.114,-274.926 355.665,-273.174 362.741,-281.06 366.114,-274.926"/>
</g>
<!-- n9&#45;&gt;n5 -->
<g id="edge8" class="edge"><title>n9&#45;&gt;n5</title>
<path fill="none" stroke="black" d="M148.167,-616.989C148.167,-605.823 148.167,-592.581 148.167,-580.462"/>
<polygon fill="black" stroke="black" points="151.667,-580.181 148.167,-570.181 144.667,-580.181 151.667,-580.181"/>
</g>
<!-- n10 -->
<g id="node10" class="node"><title>n10</title>
<g id="a_node10"><a xlink:title="[[C]]:&#45;1&#45;2">
<ellipse fill="none" stroke="black" cx="289.167" cy="-1408" rx="71.127" ry="37.4533"/>
<text text-anchor="middle" x="289.167" y="-1419.3" font-family="Times,serif" font-size="14.00">Node10</text>
<text text-anchor="start" x="246.667" y="-1404.3" font-family="Times,serif" font-size="14.00">input = {}</text>
<text text-anchor="middle" x="289.167" y="-1389.3" font-family="Times,serif" font-size="14.00">selectindex = 2</text>
</a>
</g>
</g>
<!-- n10&#45;&gt;n6 -->
<g id="edge9" class="edge"><title>n10&#45;&gt;n6</title>
<path fill="none" stroke="black" d="M264.187,-1372.65C256.889,-1362.62 248.922,-1351.66 241.655,-1341.67"/>
<polygon fill="black" stroke="black" points="244.457,-1339.57 235.745,-1333.54 238.796,-1343.69 244.457,-1339.57"/>
</g>
<!-- n11 -->
<g id="node11" class="node"><title>n11</title>
<g id="a_node11"><a xlink:title="[./gru/BuildCell.lua]:46">
<ellipse fill="none" stroke="black" cx="320.167" cy="-835" rx="111.024" ry="26.7407"/>
<text text-anchor="middle" x="320.167" y="-838.8" font-family="Times,serif" font-size="14.00">Node11</text>
<text text-anchor="middle" x="320.167" y="-823.8" font-family="Times,serif" font-size="14.00">module = nn.SelectTable</text>
</a>
</g>
</g>
<!-- n11&#45;&gt;n7 -->
<g id="edge10" class="edge"><title>n11&#45;&gt;n7</title>
<path fill="none" stroke="black" d="M272.138,-810.649C248.457,-799.135 219.758,-785.182 195.093,-773.19"/>
<polygon fill="black" stroke="black" points="196.379,-769.924 185.855,-768.699 193.319,-776.22 196.379,-769.924"/>
</g>
<!-- n12 -->
<g id="node12" class="node"><title>n12</title>
<g id="a_node12"><a xlink:title="[./gru/BuildCell.lua]:57">
<ellipse fill="none" stroke="black" cx="545.167" cy="-442" rx="135.148" ry="37.4533"/>
<text text-anchor="middle" x="545.167" y="-453.3" font-family="Times,serif" font-size="14.00">Node12</text>
<text text-anchor="start" x="457.167" y="-438.3" font-family="Times,serif" font-size="14.00">module = nn.CAddTable</text>
<text text-anchor="middle" x="545.167" y="-423.3" font-family="Times,serif" font-size="14.00">mapindex = {Node15,Node16}</text>
</a>
</g>
</g>
<!-- n12&#45;&gt;n8 -->
<g id="edge11" class="edge"><title>n12&#45;&gt;n8</title>
<path fill="none" stroke="black" d="M520.425,-404.979C513.855,-395.412 506.784,-385.119 500.303,-375.683"/>
<polygon fill="black" stroke="black" points="503.094,-373.564 494.547,-367.303 497.324,-377.528 503.094,-373.564"/>
</g>
<!-- n13 -->
<g id="node13" class="node"><title>n13</title>
<g id="a_node13"><a xlink:title="[[C]]:&#45;1&#45;mnode">
<ellipse fill="none" stroke="black" cx="369.167" cy="-1509" rx="82.0366" ry="26.7407"/>
<text text-anchor="middle" x="369.167" y="-1512.8" font-family="Times,serif" font-size="14.00">Node13</text>
<text text-anchor="middle" x="369.167" y="-1497.8" font-family="Times,serif" font-size="14.00">nSplitOutputs = 2</text>
</a>
</g>
</g>
<!-- n13&#45;&gt;n10 -->
<g id="edge13" class="edge"><title>n13&#45;&gt;n10</title>
<path fill="none" stroke="black" d="M348.773,-1482.76C340.876,-1472.99 331.624,-1461.54 322.797,-1450.62"/>
<polygon fill="black" stroke="black" points="325.477,-1448.36 316.47,-1442.79 320.033,-1452.76 325.477,-1448.36"/>
</g>
<!-- n22 -->
<g id="node22" class="node"><title>n22</title>
<g id="a_node22"><a xlink:title="[[C]]:&#45;1&#45;1">
<ellipse fill="none" stroke="black" cx="595.167" cy="-1408" rx="71.127" ry="37.4533"/>
<text text-anchor="middle" x="595.167" y="-1419.3" font-family="Times,serif" font-size="14.00">Node22</text>
<text text-anchor="start" x="552.667" y="-1404.3" font-family="Times,serif" font-size="14.00">input = {}</text>
<text text-anchor="middle" x="595.167" y="-1389.3" font-family="Times,serif" font-size="14.00">selectindex = 1</text>
</a>
</g>
</g>
<!-- n13&#45;&gt;n22 -->
<g id="edge27" class="edge"><title>n13&#45;&gt;n22</title>
<path fill="none" stroke="black" d="M416.82,-1487.13C450.225,-1472.49 495.239,-1452.77 531.686,-1436.81"/>
<polygon fill="black" stroke="black" points="533.482,-1439.84 541.237,-1432.62 530.673,-1433.43 533.482,-1439.84"/>
</g>
<!-- n14 -->
<g id="node14" class="node"><title>n14</title>
<g id="a_node14"><a xlink:title="[./gru/BuildCell.lua]:43">
<ellipse fill="none" stroke="black" cx="390.167" cy="-925" rx="105.039" ry="26.7407"/>
<text text-anchor="middle" x="390.167" y="-928.8" font-family="Times,serif" font-size="14.00">Node14</text>
<text text-anchor="middle" x="390.167" y="-913.8" font-family="Times,serif" font-size="14.00">module = nn.SplitTable</text>
</a>
</g>
</g>
<!-- n14&#45;&gt;n11 -->
<g id="edge14" class="edge"><title>n14&#45;&gt;n11</title>
<path fill="none" stroke="black" d="M369.92,-898.547C362.728,-889.505 354.518,-879.184 346.869,-869.569"/>
<polygon fill="black" stroke="black" points="349.576,-867.348 340.611,-861.701 344.097,-871.706 349.576,-867.348"/>
</g>
<!-- n26 -->
<g id="node26" class="node"><title>n26</title>
<g id="a_node26"><a xlink:title="[./gru/BuildCell.lua]:47">
<ellipse fill="none" stroke="black" cx="560.167" cy="-835" rx="111.024" ry="26.7407"/>
<text text-anchor="middle" x="560.167" y="-838.8" font-family="Times,serif" font-size="14.00">Node26</text>
<text text-anchor="middle" x="560.167" y="-823.8" font-family="Times,serif" font-size="14.00">module = nn.SelectTable</text>
</a>
</g>
</g>
<!-- n14&#45;&gt;n26 -->
<g id="edge31" class="edge"><title>n14&#45;&gt;n26</title>
<path fill="none" stroke="black" d="M435.278,-900.649C456.805,-889.505 482.747,-876.077 505.396,-864.352"/>
<polygon fill="black" stroke="black" points="507.278,-867.319 514.55,-859.614 504.06,-861.102 507.278,-867.319"/>
</g>
<!-- n15 -->
<g id="node15" class="node"><title>n15</title>
<g id="a_node15"><a xlink:title="[./gru/BuildCell.lua]:56">
<ellipse fill="none" stroke="black" cx="768.167" cy="-1116" rx="130.162" ry="26.7407"/>
<text text-anchor="middle" x="768.167" y="-1119.8" font-family="Times,serif" font-size="14.00">Node15</text>
<text text-anchor="middle" x="768.167" y="-1104.8" font-family="Times,serif" font-size="14.00">module = nn.Linear(10 &#45;&gt; 64)</text>
</a>
</g>
</g>
<!-- n15&#45;&gt;n12 -->
<g id="edge15" class="edge"><title>n15&#45;&gt;n12</title>
<path fill="none" stroke="black" d="M759.544,-1089.04C748.333,-1052.91 730.167,-985.24 730.167,-926 730.167,-926 730.167,-926 730.167,-643 730.167,-582.967 723.633,-561.238 684.167,-516 670.462,-500.29 652.539,-487.452 634.141,-477.171"/>
<polygon fill="black" stroke="black" points="635.557,-473.958 625.088,-472.328 632.255,-480.131 635.557,-473.958"/>
</g>
<!-- n16 -->
<g id="node16" class="node"><title>n16</title>
<g id="a_node16"><a xlink:title="[./gru/BuildCell.lua]:55">
<ellipse fill="none" stroke="black" cx="545.167" cy="-543" rx="130.162" ry="26.7407"/>
<text text-anchor="middle" x="545.167" y="-546.8" font-family="Times,serif" font-size="14.00">Node16</text>
<text text-anchor="middle" x="545.167" y="-531.8" font-family="Times,serif" font-size="14.00">module = nn.Linear(64 &#45;&gt; 64)</text>
</a>
</g>
</g>
<!-- n16&#45;&gt;n12 -->
<g id="edge16" class="edge"><title>n16&#45;&gt;n12</title>
<path fill="none" stroke="black" d="M545.167,-515.989C545.167,-507.914 545.167,-498.753 545.167,-489.716"/>
<polygon fill="black" stroke="black" points="548.667,-489.631 545.167,-479.631 541.667,-489.631 548.667,-489.631"/>
</g>
<!-- n17 -->
<g id="node17" class="node"><title>n17</title>
<g id="a_node17"><a xlink:title="[[C]]:&#45;1">
<ellipse fill="none" stroke="black" cx="369.167" cy="-1599" rx="51.99" ry="26.7407"/>
<text text-anchor="middle" x="369.167" y="-1602.8" font-family="Times,serif" font-size="14.00">Node17</text>
<text text-anchor="middle" x="369.167" y="-1587.8" font-family="Times,serif" font-size="14.00">input = {}</text>
</a>
</g>
</g>
<!-- n17&#45;&gt;n13 -->
<g id="edge17" class="edge"><title>n17&#45;&gt;n13</title>
<path fill="none" stroke="black" d="M369.167,-1572.07C369.167,-1564 369.167,-1554.94 369.167,-1546.3"/>
<polygon fill="black" stroke="black" points="372.667,-1546.05 369.167,-1536.05 365.667,-1546.05 372.667,-1546.05"/>
</g>
<!-- n18 -->
<g id="node18" class="node"><title>n18</title>
<g id="a_node18"><a xlink:title="[./gru/BuildCell.lua]:42">
<ellipse fill="none" stroke="black" cx="390.167" cy="-1015" rx="124.176" ry="26.7407"/>
<text text-anchor="middle" x="390.167" y="-1018.8" font-family="Times,serif" font-size="14.00">Node18</text>
<text text-anchor="middle" x="390.167" y="-1003.8" font-family="Times,serif" font-size="14.00">module = nn.Reshape(2x64)</text>
</a>
</g>
</g>
<!-- n18&#45;&gt;n14 -->
<g id="edge18" class="edge"><title>n18&#45;&gt;n14</title>
<path fill="none" stroke="black" d="M390.167,-988.073C390.167,-979.999 390.167,-970.943 390.167,-962.296"/>
<polygon fill="black" stroke="black" points="393.667,-962.046 390.167,-952.046 386.667,-962.046 393.667,-962.046"/>
</g>
<!-- n19 -->
<g id="node19" class="node"><title>n19</title>
<g id="a_node19"><a xlink:title="[./gru/BuildCell.lua]:29">
<ellipse fill="none" stroke="black" cx="632.167" cy="-1307" rx="94.1301" ry="26.7407"/>
<text text-anchor="middle" x="632.167" y="-1310.8" font-family="Times,serif" font-size="14.00">Node19</text>
<text text-anchor="middle" x="632.167" y="-1295.8" font-family="Times,serif" font-size="14.00">module = nn.Identity</text>
</a>
</g>
</g>
<!-- n19&#45;&gt;n15 -->
<g id="edge19" class="edge"><title>n19&#45;&gt;n15</title>
<path fill="none" stroke="black" d="M708.476,-1291.13C734.432,-1282.03 760.754,-1267.42 776.167,-1244 793.777,-1217.25 788.875,-1180.06 781.312,-1152.84"/>
<polygon fill="black" stroke="black" points="784.564,-1151.51 778.324,-1142.94 777.862,-1153.53 784.564,-1151.51"/>
</g>
<!-- n24 -->
<g id="node24" class="node"><title>n24</title>
<g id="a_node24"><a xlink:title="[./gru/BuildCell.lua]:33">
<ellipse fill="none" stroke="black" cx="632.167" cy="-1217" rx="135.086" ry="26.7407"/>
<text text-anchor="middle" x="632.167" y="-1220.8" font-family="Times,serif" font-size="14.00">Node24</text>
<text text-anchor="middle" x="632.167" y="-1205.8" font-family="Times,serif" font-size="14.00">module = nn.Linear(10 &#45;&gt; 128)</text>
</a>
</g>
</g>
<!-- n19&#45;&gt;n24 -->
<g id="edge29" class="edge"><title>n19&#45;&gt;n24</title>
<path fill="none" stroke="black" d="M632.167,-1280.07C632.167,-1272 632.167,-1262.94 632.167,-1254.3"/>
<polygon fill="black" stroke="black" points="635.667,-1254.05 632.167,-1244.05 628.667,-1254.05 635.667,-1254.05"/>
</g>
<!-- n20&#45;&gt;n16 -->
<g id="edge20" class="edge"><title>n20&#45;&gt;n16</title>
<path fill="none" stroke="black" d="M545.167,-606.417C545.167,-597.802 545.167,-588.626 545.167,-580.035"/>
<polygon fill="black" stroke="black" points="548.667,-579.924 545.167,-569.924 541.667,-579.924 548.667,-579.924"/>
</g>
<!-- n21 -->
<g id="node21" class="node"><title>n21</title>
<g id="a_node21"><a xlink:title="[./gru/BuildCell.lua]:36">
<ellipse fill="none" stroke="black" cx="390.167" cy="-1116" rx="135.148" ry="37.4533"/>
<text text-anchor="middle" x="390.167" y="-1127.3" font-family="Times,serif" font-size="14.00">Node21</text>
<text text-anchor="start" x="302.167" y="-1112.3" font-family="Times,serif" font-size="14.00">module = nn.CAddTable</text>
<text text-anchor="middle" x="390.167" y="-1097.3" font-family="Times,serif" font-size="14.00">mapindex = {Node24,Node25}</text>
</a>
</g>
</g>
<!-- n21&#45;&gt;n18 -->
<g id="edge21" class="edge"><title>n21&#45;&gt;n18</title>
<path fill="none" stroke="black" d="M390.167,-1078.42C390.167,-1069.8 390.167,-1060.63 390.167,-1052.04"/>
<polygon fill="black" stroke="black" points="393.667,-1051.92 390.167,-1041.92 386.667,-1051.92 393.667,-1051.92"/>
</g>
<!-- n22&#45;&gt;n19 -->
<g id="edge22" class="edge"><title>n22&#45;&gt;n19</title>
<path fill="none" stroke="black" d="M608.63,-1370.98C611.998,-1361.97 615.608,-1352.31 618.964,-1343.33"/>
<polygon fill="black" stroke="black" points="622.26,-1344.51 622.483,-1333.91 615.703,-1342.05 622.26,-1344.51"/>
</g>
<!-- n23 -->
<g id="node23" class="node"><title>n23</title>
<g id="a_node23"><a xlink:title="[./gru/BuildCell.lua]:51">
<ellipse fill="none" stroke="black" cx="550.167" cy="-745" rx="97.3709" ry="26.7407"/>
<text text-anchor="middle" x="550.167" y="-748.8" font-family="Times,serif" font-size="14.00">Node23</text>
<text text-anchor="middle" x="550.167" y="-733.8" font-family="Times,serif" font-size="14.00">module = nn.Sigmoid</text>
</a>
</g>
</g>
<!-- n23&#45;&gt;n20 -->
<g id="edge23" class="edge"><title>n23&#45;&gt;n20</title>
<path fill="none" stroke="black" d="M548.854,-717.989C548.446,-709.914 547.983,-700.753 547.527,-691.716"/>
<polygon fill="black" stroke="black" points="551.017,-691.442 547.017,-681.631 544.026,-691.795 551.017,-691.442"/>
</g>
<!-- n24&#45;&gt;n21 -->
<g id="edge25" class="edge"><title>n24&#45;&gt;n21</title>
<path fill="none" stroke="black" d="M574.817,-1192.54C544.665,-1180.2 507.143,-1164.85 473.813,-1151.22"/>
<polygon fill="black" stroke="black" points="475.114,-1147.97 464.533,-1147.42 472.463,-1154.45 475.114,-1147.97"/>
</g>
<!-- n25&#45;&gt;n21 -->
<g id="edge26" class="edge"><title>n25&#45;&gt;n21</title>
<path fill="none" stroke="black" d="M356.253,-1189.99C360.166,-1181.57 364.628,-1171.97 369.001,-1162.55"/>
<polygon fill="black" stroke="black" points="372.28,-1163.8 373.32,-1153.26 365.932,-1160.85 372.28,-1163.8"/>
</g>
<!-- n26&#45;&gt;n23 -->
<g id="edge28" class="edge"><title>n26&#45;&gt;n23</title>
<path fill="none" stroke="black" d="M557.221,-808.073C556.293,-799.911 555.252,-790.744 554.259,-782.011"/>
<polygon fill="black" stroke="black" points="557.734,-781.587 553.127,-772.046 550.779,-782.377 557.734,-781.587"/>
</g>
</g>
</svg>
