<?xml version="1.0" encoding="UTF-8" standalone="no"?>
<!DOCTYPE svg PUBLIC "-//W3C//DTD SVG 1.1//EN"
 "http://www.w3.org/Graphics/SVG/1.1/DTD/svg11.dtd">
<!-- Generated by graphviz version 2.36.0 (20140111.2315)
 -->
<!-- Title: G Pages: 1 -->
<svg width="1072pt" height="1454pt"
 viewBox="0.00 0.00 1072.00 1454.00" xmlns="http://www.w3.org/2000/svg" xmlns:xlink="http://www.w3.org/1999/xlink">
<g id="graph0" class="graph" transform="scale(1 1) rotate(0) translate(4 1450)">
<title>G</title>
<polygon fill="white" stroke="none" points="-4,4 -4,-1450 1068,-1450 1068,4 -4,4"/>
<!-- n1 -->
<g id="node1" class="node"><title>n1</title>
<g id="a_node1"><a xlink:title="[./lstm/BuildCell.lua]:83">
<ellipse fill="none" stroke="black" cx="737" cy="-150" rx="125.298" ry="37.4533"/>
<text text-anchor="middle" x="737" y="-161.3" font-family="Times,serif" font-size="14.00">Node1</text>
<text text-anchor="start" x="656" y="-146.3" font-family="Times,serif" font-size="14.00">module = nn.CMulTable</text>
<text text-anchor="middle" x="737" y="-131.3" font-family="Times,serif" font-size="14.00">mapindex = {Node4,Node5}</text>
</a>
</g>
</g>
<!-- n2 -->
<g id="node2" class="node"><title>n2</title>
<g id="a_node2"><a xlink:title="[[C]]:&#45;1">
<ellipse fill="none" stroke="black" cx="660" cy="-38" rx="125.298" ry="37.4533"/>
<text text-anchor="middle" x="660" y="-49.3" font-family="Times,serif" font-size="14.00">Node2</text>
<text text-anchor="start" x="579" y="-34.3" font-family="Times,serif" font-size="14.00">input = {}</text>
<text text-anchor="middle" x="660" y="-19.3" font-family="Times,serif" font-size="14.00">mapindex = {Node1,Node3}</text>
</a>
</g>
</g>
<!-- n1&#45;&gt;n2 -->
<g id="edge1" class="edge"><title>n1&#45;&gt;n2</title>
<path fill="none" stroke="black" d="M711.787,-112.982C705.206,-103.58 698.035,-93.3353 691.184,-83.5487"/>
<polygon fill="black" stroke="black" points="693.871,-81.2842 685.269,-75.099 688.137,-85.2985 693.871,-81.2842"/>
</g>
<!-- n3 -->
<g id="node3" class="node"><title>n3</title>
<g id="a_node3"><a xlink:title="[./lstm/BuildCell.lua]:80">
<ellipse fill="none" stroke="black" cx="583" cy="-352" rx="125.298" ry="37.4533"/>
<text text-anchor="middle" x="583" y="-363.3" font-family="Times,serif" font-size="14.00">Node3</text>
<text text-anchor="start" x="502" y="-348.3" font-family="Times,serif" font-size="14.00">module = nn.CAddTable</text>
<text text-anchor="middle" x="583" y="-333.3" font-family="Times,serif" font-size="14.00">mapindex = {Node6,Node7}</text>
</a>
</g>
</g>
<!-- n3&#45;&gt;n2 -->
<g id="edge2" class="edge"><title>n3&#45;&gt;n2</title>
<path fill="none" stroke="black" d="M579.454,-314.301C576.217,-266.075 575.372,-179.577 602,-112 606.089,-101.623 612.179,-91.5432 618.896,-82.3527"/>
<polygon fill="black" stroke="black" points="621.865,-84.2348 625.202,-74.1794 616.323,-79.9588 621.865,-84.2348"/>
</g>
<!-- n5 -->
<g id="node5" class="node"><title>n5</title>
<g id="a_node5"><a xlink:title="[./lstm/BuildCell.lua]:83">
<ellipse fill="none" stroke="black" cx="716" cy="-251" rx="84.2802" ry="26.7407"/>
<text text-anchor="middle" x="716" y="-254.8" font-family="Times,serif" font-size="14.00">Node5</text>
<text text-anchor="middle" x="716" y="-239.8" font-family="Times,serif" font-size="14.00">module = nn.Tanh</text>
</a>
</g>
</g>
<!-- n3&#45;&gt;n5 -->
<g id="edge8" class="edge"><title>n3&#45;&gt;n5</title>
<path fill="none" stroke="black" d="M628.771,-316.93C643.846,-305.708 660.5,-293.312 675.182,-282.384"/>
<polygon fill="black" stroke="black" points="677.639,-284.918 683.571,-276.139 673.459,-279.302 677.639,-284.918"/>
</g>
<!-- n4 -->
<g id="node4" class="node"><title>n4</title>
<g id="a_node4"><a xlink:title="[./lstm/BuildCell.lua]:72">
<ellipse fill="none" stroke="black" cx="856" cy="-352" rx="97.3709" ry="26.7407"/>
<text text-anchor="middle" x="856" y="-355.8" font-family="Times,serif" font-size="14.00">Node4</text>
<text text-anchor="middle" x="856" y="-340.8" font-family="Times,serif" font-size="14.00">module = nn.Sigmoid</text>
</a>
</g>
</g>
<!-- n4&#45;&gt;n1 -->
<g id="edge3" class="edge"><title>n4&#45;&gt;n1</title>
<path fill="none" stroke="black" d="M849.779,-324.707C842.666,-297.936 829.313,-255.939 809,-224 802.14,-213.215 793.465,-202.737 784.531,-193.242"/>
<polygon fill="black" stroke="black" points="786.822,-190.578 777.341,-185.851 781.805,-195.459 786.822,-190.578"/>
</g>
<!-- n5&#45;&gt;n1 -->
<g id="edge4" class="edge"><title>n5&#45;&gt;n1</title>
<path fill="none" stroke="black" d="M721.518,-223.989C723.249,-215.827 725.215,-206.556 727.152,-197.425"/>
<polygon fill="black" stroke="black" points="730.578,-198.14 729.23,-187.631 723.731,-196.687 730.578,-198.14"/>
</g>
<!-- n6 -->
<g id="node6" class="node"><title>n6</title>
<g id="a_node6"><a xlink:title="[./lstm/BuildCell.lua]:78">
<ellipse fill="none" stroke="black" cx="233" cy="-464" rx="130.223" ry="37.4533"/>
<text text-anchor="middle" x="233" y="-475.3" font-family="Times,serif" font-size="14.00">Node6</text>
<text text-anchor="start" x="148.5" y="-460.3" font-family="Times,serif" font-size="14.00">module = nn.CMulTable</text>
<text text-anchor="middle" x="233" y="-445.3" font-family="Times,serif" font-size="14.00">mapindex = {Node9,Node10}</text>
</a>
</g>
</g>
<!-- n6&#45;&gt;n3 -->
<g id="edge5" class="edge"><title>n6&#45;&gt;n3</title>
<path fill="none" stroke="black" d="M319.517,-435.809C370.78,-419.698 435.791,-399.266 488.408,-382.729"/>
<polygon fill="black" stroke="black" points="489.592,-386.026 498.083,-379.688 487.493,-379.348 489.592,-386.026"/>
</g>
<!-- n7 -->
<g id="node7" class="node"><title>n7</title>
<g id="a_node7"><a xlink:title="[./lstm/BuildCell.lua]:79">
<ellipse fill="none" stroke="black" cx="583" cy="-464" rx="135.148" ry="37.4533"/>
<text text-anchor="middle" x="583" y="-475.3" font-family="Times,serif" font-size="14.00">Node7</text>
<text text-anchor="start" x="495" y="-460.3" font-family="Times,serif" font-size="14.00">module = nn.CMulTable</text>
<text text-anchor="middle" x="583" y="-445.3" font-family="Times,serif" font-size="14.00">mapindex = {Node11,Node12}</text>
</a>
</g>
</g>
<!-- n7&#45;&gt;n3 -->
<g id="edge6" class="edge"><title>n7&#45;&gt;n3</title>
<path fill="none" stroke="black" d="M583,-426.372C583,-417.927 583,-408.829 583,-400.011"/>
<polygon fill="black" stroke="black" points="586.5,-399.843 583,-389.844 579.5,-399.844 586.5,-399.843"/>
</g>
<!-- n8 -->
<g id="node8" class="node"><title>n8</title>
<g id="a_node8"><a xlink:title="[./lstm/BuildCell.lua]:66">
<ellipse fill="none" stroke="black" cx="953" cy="-655" rx="111.024" ry="26.7407"/>
<text text-anchor="middle" x="953" y="-658.8" font-family="Times,serif" font-size="14.00">Node8</text>
<text text-anchor="middle" x="953" y="-643.8" font-family="Times,serif" font-size="14.00">module = nn.SelectTable</text>
</a>
</g>
</g>
<!-- n8&#45;&gt;n4 -->
<g id="edge7" class="edge"><title>n8&#45;&gt;n4</title>
<path fill="none" stroke="black" d="M944.646,-628.076C927.277,-574.179 887.245,-449.956 867.474,-388.606"/>
<polygon fill="black" stroke="black" points="870.767,-387.412 864.368,-378.968 864.104,-389.56 870.767,-387.412"/>
</g>
<!-- n9 -->
<g id="node9" class="node"><title>n9</title>
<g id="a_node9"><a xlink:title="[./lstm/BuildCell.lua]:71">
<ellipse fill="none" stroke="black" cx="233" cy="-565" rx="97.3709" ry="26.7407"/>
<text text-anchor="middle" x="233" y="-568.8" font-family="Times,serif" font-size="14.00">Node9</text>
<text text-anchor="middle" x="233" y="-553.8" font-family="Times,serif" font-size="14.00">module = nn.Sigmoid</text>
</a>
</g>
</g>
<!-- n9&#45;&gt;n6 -->
<g id="edge9" class="edge"><title>n9&#45;&gt;n6</title>
<path fill="none" stroke="black" d="M233,-537.989C233,-529.914 233,-520.753 233,-511.716"/>
<polygon fill="black" stroke="black" points="236.5,-511.631 233,-501.631 229.5,-511.631 236.5,-511.631"/>
</g>
<!-- n10 -->
<g id="node10" class="node"><title>n10</title>
<g id="a_node10"><a xlink:title="[./lstm/BuildCell.lua]:48">
<ellipse fill="none" stroke="black" cx="94" cy="-936" rx="94.1301" ry="26.7407"/>
<text text-anchor="middle" x="94" y="-939.8" font-family="Times,serif" font-size="14.00">Node10</text>
<text text-anchor="middle" x="94" y="-924.8" font-family="Times,serif" font-size="14.00">module = nn.Identity</text>
</a>
</g>
</g>
<!-- n10&#45;&gt;n6 -->
<g id="edge10" class="edge"><title>n10&#45;&gt;n6</title>
<path fill="none" stroke="black" d="M94,-909.014C94,-872.58 94,-804.242 94,-746 94,-746 94,-746 94,-654 94,-600.519 94.8982,-581.508 126,-538 135.585,-524.592 148.451,-512.879 161.934,-502.988"/>
<polygon fill="black" stroke="black" points="164.205,-505.671 170.386,-497.066 160.188,-499.938 164.205,-505.671"/>
</g>
<!-- n11 -->
<g id="node11" class="node"><title>n11</title>
<g id="a_node11"><a xlink:title="[./lstm/BuildCell.lua]:70">
<ellipse fill="none" stroke="black" cx="483" cy="-565" rx="97.3709" ry="26.7407"/>
<text text-anchor="middle" x="483" y="-568.8" font-family="Times,serif" font-size="14.00">Node11</text>
<text text-anchor="middle" x="483" y="-553.8" font-family="Times,serif" font-size="14.00">module = nn.Sigmoid</text>
</a>
</g>
</g>
<!-- n11&#45;&gt;n7 -->
<g id="edge11" class="edge"><title>n11&#45;&gt;n7</title>
<path fill="none" stroke="black" d="M508.234,-539.018C517.824,-529.524 529.041,-518.419 539.826,-507.743"/>
<polygon fill="black" stroke="black" points="542.554,-509.967 547.198,-500.444 537.629,-504.992 542.554,-509.967"/>
</g>
<!-- n12 -->
<g id="node12" class="node"><title>n12</title>
<g id="a_node12"><a xlink:title="[./lstm/BuildCell.lua]:75">
<ellipse fill="none" stroke="black" cx="703" cy="-565" rx="84.2802" ry="26.7407"/>
<text text-anchor="middle" x="703" y="-568.8" font-family="Times,serif" font-size="14.00">Node12</text>
<text text-anchor="middle" x="703" y="-553.8" font-family="Times,serif" font-size="14.00">module = nn.Tanh</text>
</a>
</g>
</g>
<!-- n12&#45;&gt;n7 -->
<g id="edge12" class="edge"><title>n12&#45;&gt;n7</title>
<path fill="none" stroke="black" d="M673.645,-539.782C661.464,-529.733 646.98,-517.784 633.204,-506.419"/>
<polygon fill="black" stroke="black" points="635.139,-503.477 625.198,-499.813 630.684,-508.877 635.139,-503.477"/>
</g>
<!-- n13 -->
<g id="node13" class="node"><title>n13</title>
<g id="a_node13"><a xlink:title="[./lstm/BuildCell.lua]:61">
<ellipse fill="none" stroke="black" cx="509" cy="-745" rx="105.039" ry="26.7407"/>
<text text-anchor="middle" x="509" y="-748.8" font-family="Times,serif" font-size="14.00">Node13</text>
<text text-anchor="middle" x="509" y="-733.8" font-family="Times,serif" font-size="14.00">module = nn.SplitTable</text>
</a>
</g>
</g>
<!-- n13&#45;&gt;n8 -->
<g id="edge13" class="edge"><title>n13&#45;&gt;n8</title>
<path fill="none" stroke="black" d="M592.686,-728.564C658.174,-716.345 751.493,-698.626 833,-682 842.634,-680.035 852.692,-677.934 862.708,-675.81"/>
<polygon fill="black" stroke="black" points="863.643,-679.189 872.694,-673.682 862.184,-672.343 863.643,-679.189"/>
</g>
<!-- n14 -->
<g id="node14" class="node"><title>n14</title>
<g id="a_node14"><a xlink:title="[./lstm/BuildCell.lua]:65">
<ellipse fill="none" stroke="black" cx="233" cy="-655" rx="111.024" ry="26.7407"/>
<text text-anchor="middle" x="233" y="-658.8" font-family="Times,serif" font-size="14.00">Node14</text>
<text text-anchor="middle" x="233" y="-643.8" font-family="Times,serif" font-size="14.00">module = nn.SelectTable</text>
</a>
</g>
</g>
<!-- n13&#45;&gt;n14 -->
<g id="edge19" class="edge"><title>n13&#45;&gt;n14</title>
<path fill="none" stroke="black" d="M444.986,-723.59C404.125,-710.562 350.977,-693.616 308.121,-679.951"/>
<polygon fill="black" stroke="black" points="309.174,-676.614 298.583,-676.911 307.047,-683.283 309.174,-676.614"/>
</g>
<!-- n16 -->
<g id="node16" class="node"><title>n16</title>
<g id="a_node16"><a xlink:title="[./lstm/BuildCell.lua]:64">
<ellipse fill="none" stroke="black" cx="473" cy="-655" rx="111.024" ry="26.7407"/>
<text text-anchor="middle" x="473" y="-658.8" font-family="Times,serif" font-size="14.00">Node16</text>
<text text-anchor="middle" x="473" y="-643.8" font-family="Times,serif" font-size="14.00">module = nn.SelectTable</text>
</a>
</g>
</g>
<!-- n13&#45;&gt;n16 -->
<g id="edge21" class="edge"><title>n13&#45;&gt;n16</title>
<path fill="none" stroke="black" d="M498.394,-718.073C494.982,-709.733 491.141,-700.345 487.499,-691.442"/>
<polygon fill="black" stroke="black" points="490.681,-689.976 483.655,-682.046 484.202,-692.626 490.681,-689.976"/>
</g>
<!-- n17 -->
<g id="node17" class="node"><title>n17</title>
<g id="a_node17"><a xlink:title="[./lstm/BuildCell.lua]:67">
<ellipse fill="none" stroke="black" cx="713" cy="-655" rx="111.024" ry="26.7407"/>
<text text-anchor="middle" x="713" y="-658.8" font-family="Times,serif" font-size="14.00">Node17</text>
<text text-anchor="middle" x="713" y="-643.8" font-family="Times,serif" font-size="14.00">module = nn.SelectTable</text>
</a>
</g>
</g>
<!-- n13&#45;&gt;n17 -->
<g id="edge22" class="edge"><title>n13&#45;&gt;n17</title>
<path fill="none" stroke="black" d="M561.006,-721.566C588.369,-709.763 622.109,-695.208 650.844,-682.813"/>
<polygon fill="black" stroke="black" points="652.584,-685.874 660.38,-678.699 649.812,-679.446 652.584,-685.874"/>
</g>
<!-- n14&#45;&gt;n9 -->
<g id="edge14" class="edge"><title>n14&#45;&gt;n9</title>
<path fill="none" stroke="black" d="M233,-628.073C233,-619.999 233,-610.943 233,-602.296"/>
<polygon fill="black" stroke="black" points="236.5,-602.046 233,-592.046 229.5,-602.046 236.5,-602.046"/>
</g>
<!-- n15 -->
<g id="node15" class="node"><title>n15</title>
<g id="a_node15"><a xlink:title="[[C]]:&#45;1&#45;3">
<ellipse fill="none" stroke="black" cx="95" cy="-1228" rx="71.127" ry="37.4533"/>
<text text-anchor="middle" x="95" y="-1239.3" font-family="Times,serif" font-size="14.00">Node15</text>
<text text-anchor="start" x="52.5" y="-1224.3" font-family="Times,serif" font-size="14.00">input = {}</text>
<text text-anchor="middle" x="95" y="-1209.3" font-family="Times,serif" font-size="14.00">selectindex = 3</text>
</a>
</g>
</g>
<!-- n15&#45;&gt;n10 -->
<g id="edge15" class="edge"><title>n15&#45;&gt;n10</title>
<path fill="none" stroke="black" d="M94.8733,-1190.27C94.6808,-1134.43 94.3166,-1028.81 94.125,-973.254"/>
<polygon fill="black" stroke="black" points="97.6248,-973.151 94.0902,-963.163 90.6248,-973.175 97.6248,-973.151"/>
</g>
<!-- n16&#45;&gt;n11 -->
<g id="edge16" class="edge"><title>n16&#45;&gt;n11</title>
<path fill="none" stroke="black" d="M475.946,-628.073C476.874,-619.911 477.915,-610.744 478.908,-602.011"/>
<polygon fill="black" stroke="black" points="482.389,-602.377 480.04,-592.046 475.433,-601.587 482.389,-602.377"/>
</g>
<!-- n17&#45;&gt;n12 -->
<g id="edge17" class="edge"><title>n17&#45;&gt;n12</title>
<path fill="none" stroke="black" d="M710.054,-628.073C709.126,-619.911 708.085,-610.744 707.092,-602.011"/>
<polygon fill="black" stroke="black" points="710.567,-601.587 705.96,-592.046 703.611,-602.377 710.567,-601.587"/>
</g>
<!-- n18 -->
<g id="node18" class="node"><title>n18</title>
<g id="a_node18"><a xlink:title="[./lstm/BuildCell.lua]:60">
<ellipse fill="none" stroke="black" cx="509" cy="-835" rx="124.176" ry="26.7407"/>
<text text-anchor="middle" x="509" y="-838.8" font-family="Times,serif" font-size="14.00">Node18</text>
<text text-anchor="middle" x="509" y="-823.8" font-family="Times,serif" font-size="14.00">module = nn.Reshape(4x64)</text>
</a>
</g>
</g>
<!-- n18&#45;&gt;n13 -->
<g id="edge18" class="edge"><title>n18&#45;&gt;n13</title>
<path fill="none" stroke="black" d="M509,-808.073C509,-799.999 509,-790.943 509,-782.296"/>
<polygon fill="black" stroke="black" points="512.5,-782.046 509,-772.046 505.5,-782.046 512.5,-782.046"/>
</g>
<!-- n19 -->
<g id="node19" class="node"><title>n19</title>
<g id="a_node19"><a xlink:title="[[C]]:&#45;1&#45;mnode">
<ellipse fill="none" stroke="black" cx="257" cy="-1329" rx="82.0366" ry="26.7407"/>
<text text-anchor="middle" x="257" y="-1332.8" font-family="Times,serif" font-size="14.00">Node19</text>
<text text-anchor="middle" x="257" y="-1317.8" font-family="Times,serif" font-size="14.00">nSplitOutputs = 3</text>
</a>
</g>
</g>
<!-- n19&#45;&gt;n15 -->
<g id="edge20" class="edge"><title>n19&#45;&gt;n15</title>
<path fill="none" stroke="black" d="M219.427,-1305.04C198.624,-1292.33 172.394,-1276.3 149.388,-1262.24"/>
<polygon fill="black" stroke="black" points="151.104,-1259.18 140.746,-1256.96 147.454,-1265.16 151.104,-1259.18"/>
</g>
<!-- n26 -->
<g id="node26" class="node"><title>n26</title>
<g id="a_node26"><a xlink:title="[[C]]:&#45;1&#45;1">
<ellipse fill="none" stroke="black" cx="257" cy="-1228" rx="71.127" ry="37.4533"/>
<text text-anchor="middle" x="257" y="-1239.3" font-family="Times,serif" font-size="14.00">Node26</text>
<text text-anchor="start" x="214.5" y="-1224.3" font-family="Times,serif" font-size="14.00">input = {}</text>
<text text-anchor="middle" x="257" y="-1209.3" font-family="Times,serif" font-size="14.00">selectindex = 1</text>
</a>
</g>
</g>
<!-- n19&#45;&gt;n26 -->
<g id="edge31" class="edge"><title>n19&#45;&gt;n26</title>
<path fill="none" stroke="black" d="M257,-1301.99C257,-1293.91 257,-1284.75 257,-1275.72"/>
<polygon fill="black" stroke="black" points="260.5,-1275.63 257,-1265.63 253.5,-1275.63 260.5,-1275.63"/>
</g>
<!-- n27 -->
<g id="node27" class="node"><title>n27</title>
<g id="a_node27"><a xlink:title="[[C]]:&#45;1&#45;2">
<ellipse fill="none" stroke="black" cx="441" cy="-1228" rx="71.127" ry="37.4533"/>
<text text-anchor="middle" x="441" y="-1239.3" font-family="Times,serif" font-size="14.00">Node27</text>
<text text-anchor="start" x="398.5" y="-1224.3" font-family="Times,serif" font-size="14.00">input = {}</text>
<text text-anchor="middle" x="441" y="-1209.3" font-family="Times,serif" font-size="14.00">selectindex = 2</text>
</a>
</g>
</g>
<!-- n19&#45;&gt;n27 -->
<g id="edge32" class="edge"><title>n19&#45;&gt;n27</title>
<path fill="none" stroke="black" d="M298.293,-1305.78C323.234,-1292.36 355.406,-1275.05 382.888,-1260.27"/>
<polygon fill="black" stroke="black" points="384.863,-1263.18 392.01,-1255.36 381.546,-1257.01 384.863,-1263.18"/>
</g>
<!-- n20 -->
<g id="node20" class="node"><title>n20</title>
<g id="a_node20"><a xlink:title="[./lstm/BuildCell.lua]:54">
<ellipse fill="none" stroke="black" cx="509" cy="-936" rx="135.148" ry="37.4533"/>
<text text-anchor="middle" x="509" y="-947.3" font-family="Times,serif" font-size="14.00">Node20</text>
<text text-anchor="start" x="421" y="-932.3" font-family="Times,serif" font-size="14.00">module = nn.CAddTable</text>
<text text-anchor="middle" x="509" y="-917.3" font-family="Times,serif" font-size="14.00">mapindex = {Node22,Node23}</text>
</a>
</g>
</g>
<!-- n20&#45;&gt;n18 -->
<g id="edge23" class="edge"><title>n20&#45;&gt;n18</title>
<path fill="none" stroke="black" d="M509,-898.417C509,-889.802 509,-880.626 509,-872.035"/>
<polygon fill="black" stroke="black" points="512.5,-871.924 509,-861.924 505.5,-871.924 512.5,-871.924"/>
</g>
<!-- n21 -->
<g id="node21" class="node"><title>n21</title>
<g id="a_node21"><a xlink:title="[[C]]:&#45;1">
<ellipse fill="none" stroke="black" cx="257" cy="-1419" rx="51.99" ry="26.7407"/>
<text text-anchor="middle" x="257" y="-1422.8" font-family="Times,serif" font-size="14.00">Node21</text>
<text text-anchor="middle" x="257" y="-1407.8" font-family="Times,serif" font-size="14.00">input = {}</text>
</a>
</g>
</g>
<!-- n21&#45;&gt;n19 -->
<g id="edge24" class="edge"><title>n21&#45;&gt;n19</title>
<path fill="none" stroke="black" d="M257,-1392.07C257,-1384 257,-1374.94 257,-1366.3"/>
<polygon fill="black" stroke="black" points="260.5,-1366.05 257,-1356.05 253.5,-1366.05 260.5,-1366.05"/>
</g>
<!-- n22 -->
<g id="node22" class="node"><title>n22</title>
<g id="a_node22"><a xlink:title="[./lstm/BuildCell.lua]:51">
<ellipse fill="none" stroke="black" cx="257" cy="-1037" rx="135.086" ry="26.7407"/>
<text text-anchor="middle" x="257" y="-1040.8" font-family="Times,serif" font-size="14.00">Node22</text>
<text text-anchor="middle" x="257" y="-1025.8" font-family="Times,serif" font-size="14.00">module = nn.Linear(10 &#45;&gt; 256)</text>
</a>
</g>
</g>
<!-- n22&#45;&gt;n20 -->
<g id="edge25" class="edge"><title>n22&#45;&gt;n20</title>
<path fill="none" stroke="black" d="M316.083,-1012.79C347.999,-1000.25 387.986,-984.541 423.266,-970.681"/>
<polygon fill="black" stroke="black" points="424.574,-973.928 432.602,-967.013 422.015,-967.412 424.574,-973.928"/>
</g>
<!-- n23 -->
<g id="node23" class="node"><title>n23</title>
<g id="a_node23"><a xlink:title="[./lstm/BuildCell.lua]:52">
<ellipse fill="none" stroke="black" cx="545" cy="-1037" rx="135.086" ry="26.7407"/>
<text text-anchor="middle" x="545" y="-1040.8" font-family="Times,serif" font-size="14.00">Node23</text>
<text text-anchor="middle" x="545" y="-1025.8" font-family="Times,serif" font-size="14.00">module = nn.Linear(64 &#45;&gt; 256)</text>
</a>
</g>
</g>
<!-- n23&#45;&gt;n20 -->
<g id="edge26" class="edge"><title>n23&#45;&gt;n20</title>
<path fill="none" stroke="black" d="M535.541,-1009.99C532.542,-1001.74 529.13,-992.359 525.776,-983.134"/>
<polygon fill="black" stroke="black" points="529.027,-981.833 522.32,-973.631 522.449,-984.225 529.027,-981.833"/>
</g>
<!-- n24 -->
<g id="node24" class="node"><title>n24</title>
<g id="a_node24"><a xlink:title="[./lstm/BuildCell.lua]:46">
<ellipse fill="none" stroke="black" cx="257" cy="-1127" rx="94.1301" ry="26.7407"/>
<text text-anchor="middle" x="257" y="-1130.8" font-family="Times,serif" font-size="14.00">Node24</text>
<text text-anchor="middle" x="257" y="-1115.8" font-family="Times,serif" font-size="14.00">module = nn.Identity</text>
</a>
</g>
</g>
<!-- n24&#45;&gt;n22 -->
<g id="edge27" class="edge"><title>n24&#45;&gt;n22</title>
<path fill="none" stroke="black" d="M257,-1100.07C257,-1092 257,-1082.94 257,-1074.3"/>
<polygon fill="black" stroke="black" points="260.5,-1074.05 257,-1064.05 253.5,-1074.05 260.5,-1074.05"/>
</g>
<!-- n25 -->
<g id="node25" class="node"><title>n25</title>
<g id="a_node25"><a xlink:title="[./lstm/BuildCell.lua]:47">
<ellipse fill="none" stroke="black" cx="505" cy="-1127" rx="94.1301" ry="26.7407"/>
<text text-anchor="middle" x="505" y="-1130.8" font-family="Times,serif" font-size="14.00">Node25</text>
<text text-anchor="middle" x="505" y="-1115.8" font-family="Times,serif" font-size="14.00">module = nn.Identity</text>
</a>
</g>
</g>
<!-- n25&#45;&gt;n23 -->
<g id="edge28" class="edge"><title>n25&#45;&gt;n23</title>
<path fill="none" stroke="black" d="M516.785,-1100.07C520.616,-1091.64 524.934,-1082.14 529.019,-1073.16"/>
<polygon fill="black" stroke="black" points="532.209,-1074.6 533.161,-1064.05 525.837,-1071.7 532.209,-1074.6"/>
</g>
<!-- n26&#45;&gt;n24 -->
<g id="edge29" class="edge"><title>n26&#45;&gt;n24</title>
<path fill="none" stroke="black" d="M257,-1190.42C257,-1181.8 257,-1172.63 257,-1164.04"/>
<polygon fill="black" stroke="black" points="260.5,-1163.92 257,-1153.92 253.5,-1163.92 260.5,-1163.92"/>
</g>
<!-- n27&#45;&gt;n25 -->
<g id="edge30" class="edge"><title>n27&#45;&gt;n25</title>
<path fill="none" stroke="black" d="M463.384,-1192.37C469.676,-1182.64 476.516,-1172.06 482.797,-1162.34"/>
<polygon fill="black" stroke="black" points="485.888,-1164.01 488.378,-1153.71 480.01,-1160.21 485.888,-1164.01"/>
</g>
</g>
</svg>
