<?xml version="1.0" encoding="UTF-8" standalone="no"?>
<!DOCTYPE svg PUBLIC "-//W3C//DTD SVG 1.1//EN"
 "http://www.w3.org/Graphics/SVG/1.1/DTD/svg11.dtd">
<!-- Generated by graphviz version 2.36.0 (20140111.2315)
 -->
<!-- Title: G Pages: 1 -->
<svg width="242pt" height="422pt"
 viewBox="0.00 0.00 242.00 422.00" xmlns="http://www.w3.org/2000/svg" xmlns:xlink="http://www.w3.org/1999/xlink">
<g id="graph0" class="graph" transform="scale(1 1) rotate(0) translate(4 418)">
<title>G</title>
<polygon fill="white" stroke="none" points="-4,4 -4,-418 238,-418 238,4 -4,4"/>
<!-- n1 -->
<g id="node1" class="node"><title>n1</title>
<g id="a_node1"><a xlink:title="[test.lua]:28">
<ellipse fill="none" stroke="black" cx="117" cy="-117" rx="111.024" ry="26.7407"/>
<text text-anchor="middle" x="117" y="-120.8" font-family="Times,serif" font-size="14.00">Node1</text>
<text text-anchor="middle" x="117" y="-105.8" font-family="Times,serif" font-size="14.00">module = nn.SelectTable</text>
</a>
</g>
</g>
<!-- n2 -->
<g id="node2" class="node"><title>n2</title>
<g id="a_node2"><a xlink:title="[[C]]:&#45;1">
<ellipse fill="none" stroke="black" cx="117" cy="-27" rx="51.99" ry="26.7407"/>
<text text-anchor="middle" x="117" y="-30.8" font-family="Times,serif" font-size="14.00">Node2</text>
<text text-anchor="middle" x="117" y="-15.8" font-family="Times,serif" font-size="14.00">input = {}</text>
</a>
</g>
</g>
<!-- n1&#45;&gt;n2 -->
<g id="edge1" class="edge"><title>n1&#45;&gt;n2</title>
<path fill="none" stroke="black" d="M117,-90.0731C117,-81.9993 117,-72.9428 117,-64.2961"/>
<polygon fill="black" stroke="black" points="120.5,-64.0457 117,-54.0457 113.5,-64.0458 120.5,-64.0457"/>
</g>
<!-- n3 -->
<g id="node3" class="node"><title>n3</title>
<g id="a_node3"><a xlink:title="[test.lua]:28">
<ellipse fill="none" stroke="black" cx="117" cy="-207" rx="117.07" ry="26.7407"/>
<text text-anchor="middle" x="117" y="-210.8" font-family="Times,serif" font-size="14.00">Node3</text>
<text text-anchor="middle" x="117" y="-195.8" font-family="Times,serif" font-size="14.00">module = lstm.BuildChain</text>
</a>
</g>
</g>
<!-- n3&#45;&gt;n1 -->
<g id="edge2" class="edge"><title>n3&#45;&gt;n1</title>
<path fill="none" stroke="black" d="M117,-180.073C117,-171.999 117,-162.943 117,-154.296"/>
<polygon fill="black" stroke="black" points="120.5,-154.046 117,-144.046 113.5,-154.046 120.5,-154.046"/>
</g>
<!-- n4 -->
<g id="node4" class="node"><title>n4</title>
<g id="a_node4"><a xlink:title="[test.lua]:26">
<ellipse fill="none" stroke="black" cx="117" cy="-297" rx="94.1301" ry="26.7407"/>
<text text-anchor="middle" x="117" y="-300.8" font-family="Times,serif" font-size="14.00">Node4</text>
<text text-anchor="middle" x="117" y="-285.8" font-family="Times,serif" font-size="14.00">module = nn.Identity</text>
</a>
</g>
</g>
<!-- n4&#45;&gt;n3 -->
<g id="edge3" class="edge"><title>n4&#45;&gt;n3</title>
<path fill="none" stroke="black" d="M117,-270.073C117,-261.999 117,-252.943 117,-244.296"/>
<polygon fill="black" stroke="black" points="120.5,-244.046 117,-234.046 113.5,-244.046 120.5,-244.046"/>
</g>
<!-- n5 -->
<g id="node5" class="node"><title>n5</title>
<g id="a_node5"><a xlink:title="[[C]]:&#45;1">
<ellipse fill="none" stroke="black" cx="117" cy="-387" rx="51.99" ry="26.7407"/>
<text text-anchor="middle" x="117" y="-390.8" font-family="Times,serif" font-size="14.00">Node5</text>
<text text-anchor="middle" x="117" y="-375.8" font-family="Times,serif" font-size="14.00">input = {}</text>
</a>
</g>
</g>
<!-- n5&#45;&gt;n4 -->
<g id="edge4" class="edge"><title>n5&#45;&gt;n4</title>
<path fill="none" stroke="black" d="M117,-360.073C117,-351.999 117,-342.943 117,-334.296"/>
<polygon fill="black" stroke="black" points="120.5,-334.046 117,-324.046 113.5,-334.046 120.5,-334.046"/>
</g>
</g>
</svg>
